<svg viewBox="383 309.8633 390.7631 64.2735" width="5000" height="822.4100484411142" xmlns="http://www.w3.org/2000/svg" xmlns:xlink="http://www.w3.org/1999/xlink" preserveAspectRatio="none"><defs></defs><style>.aD6z1nYkhcolor {fill:#676464;fill-opacity:1;}.aDeYB2lFvXcolor {fill:#758E73;fill-opacity:1;}.aIptOCySncolors-0 {fill:#8CAC8A;fill-opacity:1;}.atBXipXk0bfillColor {fill:#676464;fill-opacity:1;}.shapeStroke-str {stroke:#313131;stroke-opacity:1;}</style><g opacity="1" transform="rotate(0 383 318.6279)">
<svg width="77.1754" height="46.7443" x="383" y="318.6279" version="1.1" preserveAspectRatio="none" viewBox="5.67750883102417 23.155000686645508 88.6445083618164 53.691009521484375">
  <g transform="matrix(1 0 0 1 0 0)" class="aIptOCySncolors-0"><g><path d="M5.833,37.065c0,0-4.161,33.195,30.567,33.195C36.4,70.26,45.055,37.065,5.833,37.065z"></path><path d="M94.074,23.155c-47.241,0-51.611,29.712-50.744,44.967c7.981-23.02,29.738-28.101,29.738-28.101   c-20.77,12.557-25.03,35.225-25.307,36.825C100.514,74.81,94.074,23.155,94.074,23.155z"></path></g></g>
</svg>
</g><g opacity="1" transform="rotate(0 497.0083 329.5836)">
<svg width="128.5125" height="24.8329" x="497.0083" y="329.5836" version="1.1" preserveAspectRatio="none" viewBox="1.12 -31.48 204.71999999999997 39.56">
  <g transform="matrix(1 0 0 1 0 0)" class="aD6z1nYkhcolor"><path d="M12.52 0.48Q9.20 0.48 6.10-0.42Q3-1.32 1.12-2.76L1.12-2.76L3.32-7.64Q5.12-6.32 7.60-5.52Q10.08-4.72 12.56-4.72L12.56-4.72Q15.32-4.72 16.64-5.54Q17.96-6.36 17.96-7.72L17.96-7.72Q17.96-8.72 17.18-9.38Q16.40-10.04 15.18-10.44Q13.96-10.84 11.88-11.32L11.88-11.32Q8.68-12.08 6.64-12.84Q4.60-13.60 3.14-15.28Q1.68-16.96 1.68-19.76L1.68-19.76Q1.68-22.20 3-24.18Q4.32-26.16 6.98-27.32Q9.64-28.48 13.48-28.48L13.48-28.48Q16.16-28.48 18.72-27.84Q21.28-27.20 23.20-26L23.20-26L21.20-21.08Q17.32-23.28 13.44-23.28L13.44-23.28Q10.72-23.28 9.42-22.40Q8.12-21.52 8.12-20.08L8.12-20.08Q8.12-18.64 9.62-17.94Q11.12-17.24 14.20-16.56L14.20-16.56Q17.40-15.80 19.44-15.04Q21.48-14.28 22.94-12.64Q24.40-11 24.40-8.20L24.40-8.20Q24.40-5.80 23.06-3.82Q21.72-1.84 19.04-0.68Q16.36 0.48 12.52 0.48L12.52 0.48Z M28.40 0L28.40-21.52L34.64-21.52L34.64 0L28.40 0ZM31.52-24.52Q29.80-24.52 28.72-25.52Q27.64-26.52 27.64-28L27.64-28Q27.64-29.48 28.72-30.48Q29.80-31.48 31.52-31.48L31.52-31.48Q33.24-31.48 34.32-30.52Q35.40-29.56 35.40-28.12L35.40-28.12Q35.40-26.56 34.32-25.54Q33.24-24.52 31.52-24.52L31.52-24.52Z M40.44 0L40.44-29.68L46.68-29.68L46.68 0L40.44 0Z M67.84-21.52L73.84-21.52L64.76 0L58.32 0L49.28-21.52L55.72-21.52L61.68-6.88L67.84-21.52Z M96.88-10.68Q96.88-10.56 96.76-9L96.76-9L80.48-9Q80.92-7 82.56-5.84Q84.20-4.68 86.64-4.68L86.64-4.68Q88.32-4.68 89.62-5.18Q90.92-5.68 92.04-6.76L92.04-6.76L95.36-3.16Q92.32 0.32 86.48 0.32L86.48 0.32Q82.84 0.32 80.04-1.10Q77.24-2.52 75.72-5.04Q74.20-7.56 74.20-10.76L74.20-10.76Q74.20-13.92 75.70-16.46Q77.20-19 79.82-20.42Q82.44-21.84 85.68-21.84L85.68-21.84Q88.84-21.84 91.40-20.48Q93.96-19.12 95.42-16.58Q96.88-14.04 96.88-10.68L96.88-10.68ZM85.72-17.12Q83.60-17.12 82.16-15.92Q80.72-14.72 80.40-12.64L80.40-12.64L91.00-12.64Q90.68-14.68 89.24-15.90Q87.80-17.12 85.72-17.12L85.72-17.12Z M107.00-18.68Q108.12-20.24 110.02-21.04Q111.92-21.84 114.40-21.84L114.40-21.84L114.40-16.08Q113.36-16.16 113.00-16.16L113.00-16.16Q110.32-16.16 108.80-14.66Q107.28-13.16 107.28-10.16L107.28-10.16L107.28 0L101.04 0L101.04-21.52L107.00-21.52L107.00-18.68Z M150.60-14.56Q153.00-13.80 154.36-12.02Q155.72-10.24 155.72-7.64L155.72-7.64Q155.72-3.96 152.86-1.98Q150.00 0 144.52 0L144.52 0L130.04 0L130.04-28L143.72-28Q148.84-28 151.58-26.04Q154.32-24.08 154.32-20.72L154.32-20.72Q154.32-18.68 153.34-17.08Q152.36-15.48 150.60-14.56L150.60-14.56ZM142.92-23.12L136.48-23.12L136.48-16.52L142.92-16.52Q145.32-16.52 146.56-17.36Q147.80-18.20 147.80-19.84L147.80-19.84Q147.80-21.48 146.56-22.30Q145.32-23.12 142.92-23.12L142.92-23.12ZM144.04-4.88Q146.60-4.88 147.90-5.72Q149.20-6.56 149.20-8.32L149.20-8.32Q149.20-11.80 144.04-11.80L144.04-11.80L136.48-11.80L136.48-4.88L144.04-4.88Z M168.88-21.84Q173.88-21.84 176.56-19.46Q179.24-17.08 179.24-12.28L179.24-12.28L179.24 0L173.40 0L173.40-2.68Q171.64 0.32 166.84 0.32L166.84 0.32Q164.36 0.32 162.54-0.52Q160.72-1.36 159.76-2.84Q158.80-4.32 158.80-6.20L158.80-6.20Q158.80-9.20 161.06-10.92Q163.32-12.64 168.04-12.64L168.04-12.64L173.00-12.64Q173.00-14.68 171.76-15.78Q170.52-16.88 168.04-16.88L168.04-16.88Q166.32-16.88 164.66-16.34Q163.00-15.80 161.84-14.88L161.84-14.88L159.60-19.24Q161.36-20.48 163.82-21.16Q166.28-21.84 168.88-21.84L168.88-21.84ZM168.40-3.88Q170.00-3.88 171.24-4.62Q172.48-5.36 173.00-6.80L173.00-6.80L173.00-9L168.72-9Q164.88-9 164.88-6.48L164.88-6.48Q164.88-5.28 165.82-4.58Q166.76-3.88 168.40-3.88L168.40-3.88Z M199.84-21.52L205.84-21.52L196.12 1.32Q194.64 5.04 192.46 6.56Q190.28 8.08 187.20 8.08L187.20 8.08Q185.52 8.08 183.88 7.56Q182.24 7.04 181.20 6.12L181.20 6.12L183.48 1.68Q184.20 2.32 185.14 2.68Q186.08 3.04 187.00 3.04L187.00 3.04Q188.28 3.04 189.08 2.42Q189.88 1.80 190.52 0.36L190.52 0.36L190.60 0.16L181.28-21.52L187.72-21.52L193.76-6.92L199.84-21.52Z"/></g>
</svg>
</g><g opacity="1" transform="rotate(0 470.4007 309.8633)">
<svg width="2.9215" height="64.2735" x="470.4007" y="309.8633" version="1.1" preserveAspectRatio="none" viewBox="0 0 2.9215 64.2735">
  <rect x="0" y="0" width="2.9215" height="64.2735" class="atBXipXk0bfillColor shapeStroke-str" style="stroke-width:0;" rx="0px" ry="0px" />
</svg>
</g><g opacity="1" transform="rotate(0 631.2209 329.5836)">
<svg width="142.5422" height="25" x="631.2209" y="329.5836" version="1.1" preserveAspectRatio="none" viewBox="1.56 -31.48 225.56 39.56">
  <g transform="matrix(1 0 0 1 0 0)" class="aDeYB2lFvXcolor"><path d="M16.72 0.48Q12.44 0.48 8.98-1.38Q5.52-3.24 3.54-6.54Q1.56-9.84 1.56-14L1.56-14Q1.56-18.16 3.54-21.46Q5.52-24.76 8.98-26.62Q12.44-28.48 16.76-28.48L16.76-28.48Q20.40-28.48 23.34-27.20Q26.28-25.92 28.28-23.52L28.28-23.52L24.12-19.68Q21.28-22.96 17.08-22.96L17.08-22.96Q14.48-22.96 12.44-21.82Q10.40-20.68 9.26-18.64Q8.12-16.60 8.12-14L8.12-14Q8.12-11.40 9.26-9.36Q10.40-7.32 12.44-6.18Q14.48-5.04 17.08-5.04L17.08-5.04Q21.28-5.04 24.12-8.36L24.12-8.36L28.28-4.52Q26.28-2.08 23.32-0.80Q20.36 0.48 16.72 0.48L16.72 0.48Z M41.68 0.32Q38.28 0.32 35.58-1.10Q32.88-2.52 31.36-5.04Q29.84-7.56 29.84-10.76L29.84-10.76Q29.84-13.96 31.36-16.48Q32.88-19 35.58-20.42Q38.28-21.84 41.68-21.84L41.68-21.84Q45.08-21.84 47.76-20.42Q50.44-19 51.96-16.48Q53.48-13.96 53.48-10.76L53.48-10.76Q53.48-7.56 51.96-5.04Q50.44-2.52 47.76-1.10Q45.08 0.32 41.68 0.32L41.68 0.32ZM41.68-4.80Q44.08-4.80 45.62-6.42Q47.16-8.04 47.16-10.76L47.16-10.76Q47.16-13.48 45.62-15.10Q44.08-16.72 41.68-16.72L41.68-16.72Q39.28-16.72 37.72-15.10Q36.16-13.48 36.16-10.76L36.16-10.76Q36.16-8.04 37.72-6.42Q39.28-4.80 41.68-4.80L41.68-4.80Z M70.72-21.84Q74.72-21.84 77.18-19.44Q79.64-17.04 79.64-12.32L79.64-12.32L79.64 0L73.40 0L73.40-11.36Q73.40-13.92 72.28-15.18Q71.16-16.44 69.04-16.44L69.04-16.44Q66.68-16.44 65.28-14.98Q63.88-13.52 63.88-10.64L63.88-10.64L63.88 0L57.64 0L57.64-21.52L63.60-21.52L63.60-19Q64.84-20.36 66.68-21.10Q68.52-21.84 70.72-21.84L70.72-21.84Z M92.52 0.32Q89.84 0.32 87.28-0.34Q84.72-1 83.20-2L83.20-2L85.28-6.48Q86.72-5.56 88.76-4.98Q90.80-4.40 92.76-4.40L92.76-4.40Q96.72-4.40 96.72-6.36L96.72-6.36Q96.72-7.28 95.64-7.68Q94.56-8.08 92.32-8.36L92.32-8.36Q89.68-8.76 87.96-9.28Q86.24-9.80 84.98-11.12Q83.72-12.44 83.72-14.88L83.72-14.88Q83.72-16.92 84.90-18.50Q86.08-20.08 88.34-20.96Q90.60-21.84 93.68-21.84L93.68-21.84Q95.96-21.84 98.22-21.34Q100.48-20.84 101.96-19.96L101.96-19.96L99.88-15.52Q97.04-17.12 93.68-17.12L93.68-17.12Q91.68-17.12 90.68-16.56Q89.68-16 89.68-15.12L89.68-15.12Q89.68-14.12 90.76-13.72Q91.84-13.32 94.20-12.96L94.20-12.96Q96.84-12.52 98.52-12.02Q100.20-11.52 101.44-10.20Q102.68-8.88 102.68-6.52L102.68-6.52Q102.68-4.52 101.48-2.96Q100.28-1.40 97.98-0.54Q95.68 0.32 92.52 0.32L92.52 0.32Z M121.96-21.52L128.20-21.52L128.20 0L122.28 0L122.28-2.56Q121.04-1.16 119.32-0.42Q117.60 0.32 115.60 0.32L115.60 0.32Q111.36 0.32 108.88-2.12Q106.40-4.56 106.40-9.36L106.40-9.36L106.40-21.52L112.64-21.52L112.64-10.28Q112.64-5.08 117.00-5.08L117.00-5.08Q119.24-5.08 120.60-6.54Q121.96-8 121.96-10.88L121.96-10.88L121.96-21.52Z M134 0L134-29.68L140.24-29.68L140.24 0L134 0Z M159.80-5.44L161.48-1.04Q160.56-0.36 159.22-0.02Q157.88 0.32 156.40 0.32L156.40 0.32Q152.56 0.32 150.46-1.64Q148.36-3.60 148.36-7.40L148.36-7.40L148.36-16.24L145.04-16.24L145.04-21.04L148.36-21.04L148.36-26.28L154.60-26.28L154.60-21.04L159.96-21.04L159.96-16.24L154.60-16.24L154.60-7.48Q154.60-6.12 155.30-5.38Q156-4.64 157.28-4.64L157.28-4.64Q158.76-4.64 159.80-5.44L159.80-5.44Z M165 0L165-21.52L171.24-21.52L171.24 0L165 0ZM168.12-24.52Q166.40-24.52 165.32-25.52Q164.24-26.52 164.24-28L164.24-28Q164.24-29.48 165.32-30.48Q166.40-31.48 168.12-31.48L168.12-31.48Q169.84-31.48 170.92-30.52Q172-29.56 172-28.12L172-28.12Q172-26.56 170.92-25.54Q169.84-24.52 168.12-24.52L168.12-24.52Z M190.12-21.84Q194.12-21.84 196.58-19.44Q199.04-17.04 199.04-12.32L199.04-12.32L199.04 0L192.80 0L192.80-11.36Q192.80-13.92 191.68-15.18Q190.56-16.44 188.44-16.44L188.44-16.44Q186.08-16.44 184.68-14.98Q183.28-13.52 183.28-10.64L183.28-10.64L183.28 0L177.04 0L177.04-21.52L183-21.52L183-19Q184.24-20.36 186.08-21.10Q187.92-21.84 190.12-21.84L190.12-21.84Z M221.20-21.52L227.12-21.52L227.12-3.60Q227.12 2.32 224.04 5.20Q220.96 8.08 215.04 8.08L215.04 8.08Q211.92 8.08 209.12 7.32Q206.32 6.56 204.48 5.12L204.48 5.12L206.96 0.64Q208.32 1.76 210.40 2.42Q212.48 3.08 214.56 3.08L214.56 3.08Q217.80 3.08 219.34 1.62Q220.88 0.16 220.88-2.80L220.88-2.80L220.88-3.72Q218.44-1.04 214.08-1.04L214.08-1.04Q211.12-1.04 208.66-2.34Q206.20-3.64 204.76-6Q203.32-8.36 203.32-11.44L203.32-11.44Q203.32-14.52 204.76-16.88Q206.20-19.24 208.66-20.54Q211.12-21.84 214.08-21.84L214.08-21.84Q218.76-21.84 221.20-18.76L221.20-18.76L221.20-21.52ZM215.32-6.16Q217.80-6.16 219.38-7.62Q220.96-9.08 220.96-11.44L220.96-11.44Q220.96-13.80 219.38-15.26Q217.80-16.72 215.32-16.72L215.32-16.72Q212.84-16.72 211.24-15.26Q209.64-13.80 209.64-11.44L209.64-11.44Q209.64-9.08 211.24-7.62Q212.84-6.16 215.32-6.16L215.32-6.16Z"/></g>
</svg>
</g></svg>